<svg width="125" height="23" viewBox="0 0 125 23" fill="none" xmlns="http://www.w3.org/2000/svg">
<path d="M-0.0079999 18V1.2H8.2C10.312 1.2 11.896 1.6 12.952 2.4C14.024 3.2 14.56 4.256 14.56 5.568C14.56 6.448 14.344 7.216 13.912 7.872C13.48 8.512 12.888 9.008 12.136 9.36C11.384 9.712 10.52 9.888 9.544 9.888L10 8.904C11.056 8.904 11.992 9.08 12.808 9.432C13.624 9.768 14.256 10.272 14.704 10.944C15.168 11.616 15.4 12.44 15.4 13.416C15.4 14.856 14.832 15.984 13.696 16.8C12.56 17.6 10.888 18 8.68 18H-0.0079999ZM3.856 15.072H8.392C9.4 15.072 10.16 14.912 10.672 14.592C11.2 14.256 11.464 13.728 11.464 13.008C11.464 12.304 11.2 11.784 10.672 11.448C10.16 11.096 9.4 10.92 8.392 10.92H3.568V8.088H7.72C8.664 8.088 9.384 7.928 9.88 7.608C10.392 7.272 10.648 6.768 10.648 6.096C10.648 5.44 10.392 4.952 9.88 4.632C9.384 4.296 8.664 4.128 7.72 4.128H3.856V15.072ZM24.2236 18.192C22.8476 18.192 21.6236 17.904 20.5516 17.328C19.4956 16.752 18.6556 15.968 18.0316 14.976C17.4236 13.968 17.1196 12.824 17.1196 11.544C17.1196 10.248 17.4236 9.104 18.0316 8.112C18.6556 7.104 19.4956 6.32 20.5516 5.76C21.6236 5.184 22.8476 4.896 24.2236 4.896C25.5836 4.896 26.7996 5.184 27.8716 5.76C28.9436 6.32 29.7836 7.096 30.3916 8.088C30.9996 9.08 31.3036 10.232 31.3036 11.544C31.3036 12.824 30.9996 13.968 30.3916 14.976C29.7836 15.968 28.9436 16.752 27.8716 17.328C26.7996 17.904 25.5836 18.192 24.2236 18.192ZM24.2236 15.12C24.8476 15.12 25.4076 14.976 25.9036 14.688C26.3996 14.4 26.7916 13.992 27.0796 13.464C27.3676 12.92 27.5116 12.28 27.5116 11.544C27.5116 10.792 27.3676 10.152 27.0796 9.624C26.7916 9.096 26.3996 8.688 25.9036 8.4C25.4076 8.112 24.8476 7.968 24.2236 7.968C23.5996 7.968 23.0396 8.112 22.5436 8.4C22.0476 8.688 21.6476 9.096 21.3436 9.624C21.0556 10.152 20.9116 10.792 20.9116 11.544C20.9116 12.28 21.0556 12.92 21.3436 13.464C21.6476 13.992 22.0476 14.4 22.5436 14.688C23.0396 14.976 23.5996 15.12 24.2236 15.12ZM39.9501 18.192C38.5741 18.192 37.3501 17.904 36.2781 17.328C35.2221 16.752 34.3821 15.968 33.7581 14.976C33.1501 13.968 32.8461 12.824 32.8461 11.544C32.8461 10.248 33.1501 9.104 33.7581 8.112C34.3821 7.104 35.2221 6.32 36.2781 5.76C37.3501 5.184 38.5741 4.896 39.9501 4.896C41.3101 4.896 42.5261 5.184 43.5981 5.76C44.6701 6.32 45.5101 7.096 46.1181 8.088C46.7261 9.08 47.0301 10.232 47.0301 11.544C47.0301 12.824 46.7261 13.968 46.1181 14.976C45.5101 15.968 44.6701 16.752 43.5981 17.328C42.5261 17.904 41.3101 18.192 39.9501 18.192ZM39.9501 15.12C40.5741 15.12 41.1341 14.976 41.6301 14.688C42.1261 14.4 42.5181 13.992 42.8061 13.464C43.0941 12.92 43.2381 12.28 43.2381 11.544C43.2381 10.792 43.0941 10.152 42.8061 9.624C42.5181 9.096 42.1261 8.688 41.6301 8.4C41.1341 8.112 40.5741 7.968 39.9501 7.968C39.3261 7.968 38.7661 8.112 38.2701 8.4C37.7741 8.688 37.3741 9.096 37.0701 9.624C36.7821 10.152 36.6381 10.792 36.6381 11.544C36.6381 12.28 36.7821 12.92 37.0701 13.464C37.3741 13.992 37.7741 14.4 38.2701 14.688C38.7661 14.976 39.3261 15.12 39.9501 15.12ZM52.6287 15.36L52.7247 10.8L58.7487 5.088H63.2127L57.4287 10.968L55.4847 12.552L52.6287 15.36ZM49.5327 18V0.191999H53.2767V18H49.5327ZM59.1567 18L54.7887 12.576L57.1407 9.672L63.6927 18H59.1567ZM69.2986 18.192C68.1946 18.192 67.1306 18.064 66.1066 17.808C65.0986 17.536 64.2986 17.2 63.7066 16.8L64.9546 14.112C65.5466 14.48 66.2426 14.784 67.0426 15.024C67.8586 15.248 68.6586 15.36 69.4426 15.36C70.3066 15.36 70.9146 15.256 71.2666 15.048C71.6346 14.84 71.8186 14.552 71.8186 14.184C71.8186 13.88 71.6746 13.656 71.3866 13.512C71.1146 13.352 70.7466 13.232 70.2826 13.152C69.8186 13.072 69.3066 12.992 68.7466 12.912C68.2026 12.832 67.6506 12.728 67.0906 12.6C66.5306 12.456 66.0186 12.248 65.5546 11.976C65.0906 11.704 64.7146 11.336 64.4266 10.872C64.1546 10.408 64.0186 9.808 64.0186 9.072C64.0186 8.256 64.2506 7.536 64.7146 6.912C65.1946 6.288 65.8826 5.8 66.7786 5.448C67.6746 5.08 68.7466 4.896 69.9946 4.896C70.8746 4.896 71.7706 4.992 72.6826 5.184C73.5946 5.376 74.3546 5.656 74.9626 6.024L73.7146 8.688C73.0906 8.32 72.4586 8.072 71.8186 7.944C71.1946 7.8 70.5866 7.728 69.9946 7.728C69.1626 7.728 68.5546 7.84 68.1706 8.064C67.7866 8.288 67.5946 8.576 67.5946 8.928C67.5946 9.248 67.7306 9.488 68.0026 9.648C68.2906 9.808 68.6666 9.936 69.1306 10.032C69.5946 10.128 70.0986 10.216 70.6426 10.296C71.2026 10.36 71.7626 10.464 72.3226 10.608C72.8826 10.752 73.3866 10.96 73.8346 11.232C74.2986 11.488 74.6746 11.848 74.9626 12.312C75.2506 12.76 75.3946 13.352 75.3946 14.088C75.3946 14.888 75.1546 15.6 74.6746 16.224C74.1946 16.832 73.4986 17.312 72.5866 17.664C71.6906 18.016 70.5946 18.192 69.2986 18.192ZM85.5526 4.896C86.5766 4.896 87.4886 5.104 88.2886 5.52C89.1046 5.92 89.7446 6.544 90.2086 7.392C90.6726 8.224 90.9046 9.296 90.9046 10.608V18H87.1606V11.184C87.1606 10.144 86.9286 9.376 86.4646 8.88C86.0166 8.384 85.3766 8.136 84.5446 8.136C83.9526 8.136 83.4166 8.264 82.9366 8.52C82.4726 8.76 82.1046 9.136 81.8326 9.648C81.5766 10.16 81.4486 10.816 81.4486 11.616V18H77.7046V0.191999H81.4486V8.664L80.6086 7.584C81.0726 6.72 81.7366 6.056 82.6006 5.592C83.4646 5.128 84.4486 4.896 85.5526 4.896ZM100.536 18.192C99.1601 18.192 97.9361 17.904 96.8641 17.328C95.8081 16.752 94.9681 15.968 94.3441 14.976C93.7361 13.968 93.4321 12.824 93.4321 11.544C93.4321 10.248 93.7361 9.104 94.3441 8.112C94.9681 7.104 95.8081 6.32 96.8641 5.76C97.9361 5.184 99.1601 4.896 100.536 4.896C101.896 4.896 103.112 5.184 104.184 5.76C105.256 6.32 106.096 7.096 106.704 8.088C107.312 9.08 107.616 10.232 107.616 11.544C107.616 12.824 107.312 13.968 106.704 14.976C106.096 15.968 105.256 16.752 104.184 17.328C103.112 17.904 101.896 18.192 100.536 18.192ZM100.536 15.12C101.16 15.12 101.72 14.976 102.216 14.688C102.712 14.4 103.104 13.992 103.392 13.464C103.68 12.92 103.824 12.28 103.824 11.544C103.824 10.792 103.68 10.152 103.392 9.624C103.104 9.096 102.712 8.688 102.216 8.4C101.72 8.112 101.16 7.968 100.536 7.968C99.9121 7.968 99.3521 8.112 98.8561 8.4C98.3601 8.688 97.9601 9.096 97.6561 9.624C97.3681 10.152 97.2241 10.792 97.2241 11.544C97.2241 12.28 97.3681 12.92 97.6561 13.464C97.9601 13.992 98.3601 14.4 98.8561 14.688C99.3521 14.976 99.9121 15.12 100.536 15.12ZM117.751 18.192C116.663 18.192 115.711 17.952 114.895 17.472C114.079 16.992 113.439 16.264 112.975 15.288C112.527 14.296 112.303 13.048 112.303 11.544C112.303 10.024 112.519 8.776 112.951 7.8C113.383 6.824 114.007 6.096 114.823 5.616C115.639 5.136 116.615 4.896 117.751 4.896C118.967 4.896 120.055 5.176 121.015 5.736C121.991 6.28 122.759 7.048 123.319 8.04C123.895 9.032 124.183 10.2 124.183 11.544C124.183 12.904 123.895 14.08 123.319 15.072C122.759 16.064 121.991 16.832 121.015 17.376C120.055 17.92 118.967 18.192 117.751 18.192ZM110.119 22.656V5.088H113.695V7.728L113.623 11.568L113.863 15.384V22.656H110.119ZM117.103 15.12C117.727 15.12 118.279 14.976 118.759 14.688C119.255 14.4 119.647 13.992 119.935 13.464C120.239 12.92 120.391 12.28 120.391 11.544C120.391 10.792 120.239 10.152 119.935 9.624C119.647 9.096 119.255 8.688 118.759 8.4C118.279 8.112 117.727 7.968 117.103 7.968C116.479 7.968 115.919 8.112 115.423 8.4C114.927 8.688 114.535 9.096 114.247 9.624C113.959 10.152 113.815 10.792 113.815 11.544C113.815 12.28 113.959 12.92 114.247 13.464C114.535 13.992 114.927 14.4 115.423 14.688C115.919 14.976 116.479 15.12 117.103 15.12Z" fill="#1C2A39"/>
</svg>
