<?xml version="1.0" ?><svg xmlns="http://www.w3.org/2000/svg" xmlns:xlink="http://www.w3.org/1999/xlink" version="1.1" viewBox="0 0 512 512" style="enable-background:new 0 0 512 512;" xml:space="preserve"><g id="_x32_6_x2C__map_x2C__Golf_Field_x2C__flag_x2C__birdie_x2C__sports_x2C__maps_and_location"><g><path d="M511,136c0-24.813-20.187-45-45-45c-23.123,0-42.219,17.532-44.716,40H360.87c-7.491,0-14.844,2.58-20.703,7.266    l-12.478,9.98C321.868,137.576,310.832,131,298.6,131H158.67v-11.948l94.614-48.583c3.616-1.858,3.616-7.039,0-8.896    l-94.964-48.763C156.853,6.067,150.846,1,143.67,1c-8.271,0-15,6.729-15,15v115H90.716C88.22,108.532,69.123,91,46,91    c-24.813,0-45,20.187-45,45c0.001,136.472-0.002,330.837,0.002,330.022C0.87,491.196,22.365,511,46.79,511h98.679    c16.307,0,24.826-10.172,29.49-12.97c6.91,8.188,17.084,12.97,27.949,12.97h130.698c16.535,0,26.377-8.55,27.753-9.23    c5.74,2.386,14.478,9.23,29.304,9.23H466c24.673,0,45-20.001,45-45V136z M466,101c19.299,0,35,15.701,35,35v301.615    c-17.509-21.324-51.332-23.051-70,0.127c0-19.502,0-293.916,0-301.742C431,116.701,446.701,101,466,101z M138.67,16    c0-2.757,2.243-5,5-5c2.664,0,4.997,2.13,4.997,5.041c0,0.109,0.003,210.657,0.003,214.959h-10V16z M11,136    c0-19.299,15.701-35,35-35s35,15.701,35,35v301.759c-17.884-22.121-52-22.624-70,0.047V136z M466,501h-75.337    c-17.819,0-26.382-13.203-32.437-9.16c-2.811,1.471-10.62,9.16-24.62,9.16H202.908c-8.912,0-17.184-4.427-22.127-11.842    c-0.36-0.398-1.228-2.623-3.938-3.086c-1.353-0.237-2.745,0.103-3.844,0.928l-11.575,8.682c-4.573,3.43-10.239,5.318-15.956,5.318    H46.79c-19.417,0-36.162-15.856-35.783-35.685C11.368,446.394,27.066,431,46,431c19.299,0,35,15.701,35,35c0,2.762,2.238,5,5,5    s5-2.238,5-5V141h37.67v90H121c-2.762,0-5,2.238-5,5s2.238,5,5,5h45c2.762,0,5-2.238,5-5s-2.238-5-5-5h-7.33v-90H298.6    c8.827,0,16.762,4.903,20.708,12.795c1.788,2.919,2.122,6.32,5.619,7.089c1.472,0.323,3.015-0.034,4.196-0.979l17.289-13.829    c4.094-3.272,9.228-5.075,14.458-5.075H421v165h-82.5c-12.406,0-22.5,10.094-22.5,22.5s10.094,22.5,22.5,22.5H371    c6.893,0,12.5,5.607,12.5,12.5S377.893,376,371,376h-82.5c-12.406,0-22.5,10.094-22.5,22.5s10.094,22.5,22.5,22.5H421v45    c0,2.762,2.238,5,5,5s5-2.238,5-5c0-20.167,17.005-36.338,37.493-34.914c17.29,1.192,31.229,15.131,32.421,32.421    C502.322,483.907,486.264,501,466,501z"/><path d="M291,316c2.762,0,5-2.238,5-5v-5c0-2.762-2.238-5-5-5s-5,2.238-5,5v5C286,313.762,288.238,316,291,316z"/><path d="M291,291c2.762,0,5-2.238,5-5v-5c0-2.762-2.238-5-5-5s-5,2.238-5,5v5C286,288.762,288.238,291,291,291z"/><path d="M291,266c2.762,0,5-2.238,5-5v-5c0-2.762-2.238-5-5-5s-5,2.238-5,5v5C286,263.762,288.238,266,291,266z"/><path d="M291,241c2.762,0,5-2.238,5-5v-5c0-2.762-2.238-5-5-5s-5,2.238-5,5v5C286,238.762,288.238,241,291,241z"/><path d="M291,216c2.762,0,5-2.238,5-5v-5c0-2.762-2.238-5-5-5s-5,2.238-5,5v5C286,213.762,288.238,216,291,216z"/><path d="M291,191c2.762,0,5-2.238,5-5v-5c0-2.762-2.238-5-5-5s-5,2.238-5,5v5C286,188.762,288.238,191,291,191z"/><path d="M311,186h5c2.762,0,5-2.238,5-5s-2.238-5-5-5h-5c-2.762,0-5,2.238-5,5S308.238,186,311,186z"/><path d="M241,211c-9.299,0-17.113,6.388-19.342,15h-11.664c-16.426,0-30.681,11.129-34.664,27.064l-3.361,13.445    C169.1,277.985,158.835,286,147.006,286H138.5c-20.678,0-37.5,16.822-37.5,37.5s16.822,37.5,37.5,37.5h68.158    c2.229,8.612,10.043,15,19.342,15c11.028,0,20-8.972,20-20s-8.972-20-20-20c-9.299,0-17.113,6.388-19.342,15H138.5    c-15.163,0-27.5-12.337-27.5-27.5s12.337-27.5,27.5-27.5h8.506c16.426,0,30.681-11.129,34.664-27.064l3.361-13.445    C187.9,244.015,198.165,236,209.994,236h11.664c2.229,8.612,10.043,15,19.342,15c11.028,0,20-8.972,20-20S252.028,211,241,211z"/></g></g><g id="Layer_1"/></svg>