<svg width="12" height="15" viewBox="0 0 12 15" fill="none" xmlns="http://www.w3.org/2000/svg">
<mask id="path-1-inside-1_24_12" fill="white">
<path d="M8 9C10.2091 9 12 10.7909 12 13V15H0V13C0 10.7909 1.79086 9 4 9H8ZM4 10C2.34315 10 1 11.3431 1 13V14H11V13C11 11.3431 9.65685 10 8 10H4ZM6 0C8.20914 0 10 1.79086 10 4C10 6.20914 8.20914 8 6 8C3.79086 8 2 6.20914 2 4C2 1.79086 3.79086 0 6 0ZM6 1C4.34315 1 3 2.34315 3 4C3 5.65685 4.34315 7 6 7C7.65685 7 9 5.65685 9 4C9 2.34315 7.65685 1 6 1Z"/>
</mask>
<path d="M8 9C10.2091 9 12 10.7909 12 13V15H0V13C0 10.7909 1.79086 9 4 9H8ZM4 10C2.34315 10 1 11.3431 1 13V14H11V13C11 11.3431 9.65685 10 8 10H4ZM6 0C8.20914 0 10 1.79086 10 4C10 6.20914 8.20914 8 6 8C3.79086 8 2 6.20914 2 4C2 1.79086 3.79086 0 6 0ZM6 1C4.34315 1 3 2.34315 3 4C3 5.65685 4.34315 7 6 7C7.65685 7 9 5.65685 9 4C9 2.34315 7.65685 1 6 1Z" fill="#1C2A39"/>
<path d="M12 15V16H13V15H12ZM0 15H-1V16H0V15ZM1 14H0V15H1V14ZM11 14V15H12V14H11ZM8 9V10C9.65685 10 11 11.3431 11 13H12H13C13 10.2386 10.7614 8 8 8V9ZM12 13H11V15H12H13V13H12ZM12 15V14H0V15V16H12V15ZM0 15H1V13H0H-1V15H0ZM0 13H1C1 11.3431 2.34315 10 4 10V9V8C1.23858 8 -1 10.2386 -1 13H0ZM4 9V10H8V9V8H4V9ZM4 10V9C1.79086 9 0 10.7909 0 13H1H2C2 11.8954 2.89543 11 4 11V10ZM1 13H0V14H1H2V13H1ZM1 14V15H11V14V13H1V14ZM11 14H12V13H11H10V14H11ZM11 13H12C12 10.7909 10.2091 9 8 9V10V11C9.10457 11 10 11.8954 10 13H11ZM8 10V9H4V10V11H8V10ZM6 0V1C7.65685 1 9 2.34315 9 4H10H11C11 1.23858 8.76142 -1 6 -1V0ZM10 4H9C9 5.65685 7.65685 7 6 7V8V9C8.76142 9 11 6.76142 11 4H10ZM6 8V7C4.34315 7 3 5.65685 3 4H2H1C1 6.76142 3.23858 9 6 9V8ZM2 4H3C3 2.34315 4.34315 1 6 1V0V-1C3.23858 -1 1 1.23858 1 4H2ZM6 1V0C3.79086 0 2 1.79086 2 4H3H4C4 2.89543 4.89543 2 6 2V1ZM3 4H2C2 6.20914 3.79086 8 6 8V7V6C4.89543 6 4 5.10457 4 4H3ZM6 7V8C8.20914 8 10 6.20914 10 4H9H8C8 5.10457 7.10457 6 6 6V7ZM9 4H10C10 1.79086 8.20914 0 6 0V1V2C7.10457 2 8 2.89543 8 4H9Z" fill="#1C2A39" mask="url(#path-1-inside-1_24_12)"/>
</svg>
